<svg xmlns="http://www.w3.org/2000/svg" viewBox="0 0 530.26 400"><defs><style>.cls-1{fill:#489450;}</style></defs><g id="レイヤー_2" data-name="レイヤー 2"><g id="レイヤー_1-2" data-name="レイヤー 1"><path class="cls-1" d="M307,287.45a35,35,0,0,0,34.78-31.22l-69.5.41A35,35,0,0,0,307,287.45Z"/><path class="cls-1" d="M98.11,286.91a35,35,0,0,0,34.66-30.3l-69.37-.37A35,35,0,0,0,98.11,286.91Z"/><path class="cls-1" d="M375,0H25A25,25,0,0,0,0,25V375a25,25,0,0,0,25,25H375a25,25,0,0,0,25-25V25A25,25,0,0,0,375,0ZM366,255.42a59,59,0,0,1-117.84,1.36h-2.53L234.77,274a12,12,0,0,1-10.18,5.62H173.27a12,12,0,0,1-12-11.92l-.1-10.94-4.2,0a59,59,0,0,1-117.73-.63H38A12.09,12.09,0,0,1,26,244c0-19.07,8.67-35.49,25.65-48.8,8.92-7,20.21-13.09,33.68-18.21V161.76a12,12,0,0,1,12-12h89.27a12,12,0,0,1,12,12v20.31a12,12,0,0,1-12,12h-1.87v14.38l.42,47.09h32.75l45.75-72.82-24.61-69.36H213.9a5.35,5.35,0,0,1-5.35-5.34V94.68a5.35,5.35,0,0,1,5.35-5.34H247l33.68-8.7A5.35,5.35,0,0,1,286,86v22.06a5.34,5.34,0,0,1-5.34,5.34H269c15.33,24.32,42.53,67.52,42.62,68,0,0,62.32,2.89,62.32,62.7A12,12,0,0,1,366,255.42Z"/><path class="cls-1" d="M418.5,112.51l-2.41-2.92q-4.44-5.46-1.65-12.32,6.74-17.14,6.73-52.58V14.21a7,7,0,0,1,2.16-5.08A7,7,0,0,1,428.41,7h94a6.37,6.37,0,0,1,4.76,2,6.69,6.69,0,0,1,2,4.82,6.48,6.48,0,0,1-2,4.76,6.45,6.45,0,0,1-4.76,2h-31c-.68,0-1.1.38-1.27,1.15-.17.59-.4,1.39-.7,2.41s-.48,1.69-.57,2c-.17.68.13,1,.89,1h25a7.08,7.08,0,0,1,5.08,2.09,6.75,6.75,0,0,1,2.16,5V73a7.38,7.38,0,0,1-7.24,7.24H494.32a.89.89,0,0,0-1,1v16c0,3.47-.05,6.2-.13,8.19a23.59,23.59,0,0,1-.89,5.59,9.91,9.91,0,0,1-1.78,3.75,8.17,8.17,0,0,1-3.43,2,20.17,20.17,0,0,1-5.08,1q-2.65.19-7.49.19c-3.13,0-5.89,0-8.25-.13a7.22,7.22,0,0,1-5.15-2.34,8.52,8.52,0,0,1-2.35-5.28,5.9,5.9,0,0,1,1.84-5,6.36,6.36,0,0,1,4.89-1.9q5.85.25,6.48.25c2.29,0,3.66-.27,4.13-.83s.7-2.26.7-5.14V81.27c0-.68-.38-1-1.15-1H452.16A7.38,7.38,0,0,1,444.92,73V34.28a6.75,6.75,0,0,1,2.16-5,7.08,7.08,0,0,1,5.08-2.09h17.65a1.31,1.31,0,0,0,1.4-1.15c.08-.33.27-1,.57-2s.53-1.82.7-2.41-.09-1-.76-1H438.19q-1.14,0-1.14,1V56.5q0,34.55-10.42,55.25a4.52,4.52,0,0,1-3.87,2.6A4.75,4.75,0,0,1,418.5,112.51ZM460,82.79a7.21,7.21,0,0,1,3.62,4.26,6.79,6.79,0,0,1-.44,5.52,94.28,94.28,0,0,1-14.61,20.07,7,7,0,0,1-5.14,2.22,7.61,7.61,0,0,1-5.4-2l-1-.89a6.07,6.07,0,0,1-2.29-4.63,6.2,6.2,0,0,1,1.91-4.89,88.4,88.4,0,0,0,12.95-17A7.53,7.53,0,0,1,453.94,82a7.24,7.24,0,0,1,5.46.38Zm44.33-43.43H461.68q-1.14,0-1.14,1V46.6c0,.68.38,1,1.14,1h42.68c.76,0,1.14-.33,1.14-1V40.38Q505.5,39.36,504.36,39.36ZM505.5,67v-6.6a1,1,0,0,0-1.14-1.14H461.68a1,1,0,0,0-1.14,1.14V67q0,1,1.14,1h42.68Q505.5,68.06,505.5,67Zm8,17.4a228.32,228.32,0,0,1,14.48,18,6.72,6.72,0,0,1,1.2,5.46,7,7,0,0,1-3,4.7l-.76.51a7,7,0,0,1-5.34,1.14,7.2,7.2,0,0,1-4.7-2.92q-8-10.92-14.22-17.91a6.15,6.15,0,0,1-1.59-4.95,6.5,6.5,0,0,1,2.61-4.57l.63-.51a8,8,0,0,1,5.53-1.53A7.47,7.47,0,0,1,513.5,84.44Z"/><path class="cls-1" d="M413.3,212.59,411.77,207a15.6,15.6,0,0,1,2.16-12.83q11.43-18,16.64-41.65a7.62,7.62,0,0,1,8.64-5.85l1.39.26a7.16,7.16,0,0,1,4.57,3,7,7,0,0,1,1.15,5.33A144.83,144.83,0,0,1,441.24,174a6.35,6.35,0,0,0-.26,2.16v77.72a6.75,6.75,0,0,1-2.16,5,7,7,0,0,1-5.08,2.09h-1.9a7,7,0,0,1-5.08-2.09,6.75,6.75,0,0,1-2.16-5V207c0-.17-.06-.25-.19-.25a.44.44,0,0,0-.32.12c-1.35,2.29-2.88,4.62-4.57,7a3.3,3.3,0,0,1-3.49,1.33A3.44,3.44,0,0,1,413.3,212.59ZM455,178a7.38,7.38,0,0,1-7.24-7.24,6.73,6.73,0,0,1,2.16-5,7,7,0,0,1,5.08-2.1h46.48a1,1,0,0,0,1.15-1.14V153a7.15,7.15,0,0,1,7.11-7.11h2.54a7,7,0,0,1,5.08,2.1,6.73,6.73,0,0,1,2.16,5v9.53a1,1,0,0,0,1.14,1.14H523a7,7,0,0,1,5.08,2.1,6.73,6.73,0,0,1,2.16,5A7.38,7.38,0,0,1,523,178h-2.41a1,1,0,0,0-1.14,1.15v60.45q0,5.21-.19,8.19a21.73,21.73,0,0,1-1.08,5.59,9.8,9.8,0,0,1-2,3.74,9.32,9.32,0,0,1-3.81,2,24.68,24.68,0,0,1-5.72,1q-3,.19-8.38.19c-5.67,0-10.59-.09-14.73-.26a7.55,7.55,0,0,1-5.21-2.28,8.11,8.11,0,0,1-2.41-5.21,6.48,6.48,0,0,1,1.9-5,6.22,6.22,0,0,1,5-2q8.25.38,12.57.38,5.21,0,6.22-.83t1-5.14V179.19a1,1,0,0,0-1.15-1.15ZM482,225.79l-.89.51a6.94,6.94,0,0,1-5.46.58,6.85,6.85,0,0,1-4.31-3.37q-6.73-11.69-13.47-21.46a7.27,7.27,0,0,1-1.14-5.4,6.55,6.55,0,0,1,3-4.51l.89-.64a7.35,7.35,0,0,1,10,1.91q8.64,12.83,14.1,22.61a6.52,6.52,0,0,1,.63,5.46A7,7,0,0,1,482,225.79Z"/></g></g></svg>