<svg xmlns="http://www.w3.org/2000/svg" viewBox="0 0 526.45 404.49"><defs><style>.cls-1{fill:#489450;}</style></defs><g id="レイヤー_2" data-name="レイヤー 2"><g id="レイヤー_1-2" data-name="レイヤー 1"><path class="cls-1" d="M79.3,250.89a13,13,0,0,1-.09-13l25.24-44.69a47.2,47.2,0,1,0,29,64.12H90.55A13,13,0,0,1,79.3,250.89Z"/><path class="cls-1" d="M139.55,184.09a73.19,73.19,0,0,1,23.64,47.21h24.18l33.44-56.4-76.19.22Z"/><path class="cls-1" d="M112.88,231.3h24.06a47,47,0,0,0-10.73-23.59Z"/><path class="cls-1" d="M309.74,191.05a47.11,47.11,0,0,0-13.46,2l31.46,49.19-22,14-31.44-49.16a47.16,47.16,0,1,0,35.4-16Z"/><path class="cls-1" d="M375,0H25A25,25,0,0,0,0,25V375a25,25,0,0,0,25,25H375a25,25,0,0,0,25-25V25A25,25,0,0,0,375,0ZM309.74,311.5A73.21,73.21,0,0,1,260,184.57l-7.57-11.83L206,251a13,13,0,0,1-11.21,6.38H161a73.25,73.25,0,1,1-43.53-87.13l16.21-28.68H87.94V115.48H156a13,13,0,0,1,11.34,19.44l-8,14.1,77.71-.23-20.75-32.45H172.78v-26h50.67a13,13,0,0,1,11,6l47.45,74.2a73.25,73.25,0,1,1,27.86,141Z"/><path class="cls-1" d="M425.61,117.53a7.15,7.15,0,0,1-7.11-7.11V23.81a7,7,0,0,1,2.1-5.08,6.72,6.72,0,0,1,5-2.16h27.56a1.4,1.4,0,0,0,1.4-1c.84-2.37,1.78-5.33,2.79-8.89A8.79,8.79,0,0,1,460.73,2,7.53,7.53,0,0,1,466.25.57L469.3,1a5.81,5.81,0,0,1,4.51,2.54,5.8,5.8,0,0,1,.82,5.08q-1.14,4.18-2,7c-.17.68,0,1,.64,1h38a6.75,6.75,0,0,1,5,2.16,7.08,7.08,0,0,1,2.09,5.08v86.61a7.14,7.14,0,0,1-7.11,7.11h-4.57A5,5,0,0,1,503,116a4.87,4.87,0,0,1-1.53-3.56.67.67,0,0,0-.76-.76H436.15a.67.67,0,0,0-.76.76,4.9,4.9,0,0,1-1.52,3.56,5.06,5.06,0,0,1-3.69,1.52Zm9.78-86.1V43.24a1,1,0,0,0,1.14,1.14h63.89c.67,0,1-.38,1-1.14V31.43a.9.9,0,0,0-1-1H436.53Q435.39,30.41,435.39,31.43Zm0,26.67V70.16q0,1,1.14,1h63.89a.9.9,0,0,0,1-1V58.1a.9.9,0,0,0-1-1H436.53Q435.39,57.08,435.39,58.1Zm0,26.92V97.21a1,1,0,0,0,1.14,1.15h63.89c.67,0,1-.39,1-1.15V85c0-.76-.34-1.14-1-1.14H436.53A1,1,0,0,0,435.39,85Z"/><path class="cls-1" d="M433.87,234.56a1,1,0,0,0,1.14-1.14v-5.34a1,1,0,0,0-1.14-1.14H421a7.38,7.38,0,0,1-7.24-7.24V183.38a7.38,7.38,0,0,1,7.24-7.24h12.83A1,1,0,0,0,435,175v-5.47c0-.67-.38-1-1.14-1h-16a6.52,6.52,0,0,1-6.61-6.61,6.18,6.18,0,0,1,1.91-4.63,6.48,6.48,0,0,1,4.7-1.84h16a1,1,0,0,0,1.14-1.15V153a7.17,7.17,0,0,1,7.11-7.11h1.78A7.15,7.15,0,0,1,451,153v1.27a1,1,0,0,0,1.15,1.15h11.42a6.29,6.29,0,0,1,6.48,6.47,6.48,6.48,0,0,1-1.84,4.7,6.18,6.18,0,0,1-4.64,1.91H452.16c-.77,0-1.15.34-1.15,1V175a1,1,0,0,0,1.15,1.14h12.06a6.83,6.83,0,0,1,4.83,1.9,7.14,7.14,0,0,1,2.28,4.7c0,.68.34.81,1,.38a7.68,7.68,0,0,1,3.43-.89h43.05a6.75,6.75,0,0,1,5,2.16,7.22,7.22,0,0,1,0,10.16,6.75,6.75,0,0,1-5,2.16H499.91a1.2,1.2,0,0,0-1.27,1q-4.06,23.75-7.75,40.64a.59.59,0,0,0,.76.76q9.66-1.53,14.61-2.29c.76-.16,1.05-.55.89-1.14q-2-8.64-4.45-17.53a6.91,6.91,0,0,1,.7-5.39,6.77,6.77,0,0,1,4.38-3.37l.38-.12a7,7,0,0,1,5.53.76,7.5,7.5,0,0,1,3.49,4.44q4.83,17.14,8.89,36.07a7.54,7.54,0,0,1-5.59,8.64l-.76.25a7.1,7.1,0,0,1-5.46-.95,6.33,6.33,0,0,1-3.05-4.38,12.34,12.34,0,0,1-.25-1.4c-.09-.59-.17-1.06-.26-1.4-.17-.76-.68-1.06-1.52-.89Q489.88,254,474.13,256a6,6,0,0,1-5-1.59,6.66,6.66,0,0,1-2.35-4.89,10,10,0,0,1,.13-1.9.46.46,0,0,0-.07-.51.32.32,0,0,0-.44-.13,7.25,7.25,0,0,1-2.8.64H452.16a1,1,0,0,0-1.15,1.14v5.46a7.08,7.08,0,0,1-2.09,5.08,6.75,6.75,0,0,1-5,2.16h-1.78a6.72,6.72,0,0,1-5-2.16,7,7,0,0,1-2.1-5.08v-5.46a1,1,0,0,0-1.14-1.14h-16a6.48,6.48,0,0,1-4.7-1.84,6.18,6.18,0,0,1-1.91-4.64,6.51,6.51,0,0,1,6.61-6.6Zm-7.11-45.34v5.71c0,.77.33,1.15,1,1.15h6.48a1,1,0,0,0,1.14-1.15v-5.71a1,1,0,0,0-1.14-1.14h-6.48C427.09,188.08,426.76,188.46,426.76,189.22ZM434.25,215a1,1,0,0,0,1.14-1.14v-6.1a1,1,0,0,0-1.14-1.14h-6.48c-.68,0-1,.38-1,1.14v6.1c0,.76.33,1.14,1,1.14Zm16.38-25.78v5.71a1,1,0,0,0,1.14,1.15h6.48c.68,0,1-.38,1-1.15v-5.71q0-1.14-1-1.14h-6.48A1,1,0,0,0,450.63,189.22Zm0,18.54v6.1a1,1,0,0,0,1.14,1.14h6.48q1,0,1-1.14v-6.1q0-1.14-1-1.14h-6.48A1,1,0,0,0,450.63,207.76Zm20.7,11.94a7.08,7.08,0,0,1-2.09,5.08,6.75,6.75,0,0,1-5,2.16H452.16a1,1,0,0,0-1.15,1.14v5.34a1,1,0,0,0,1.15,1.14h11.42a6.17,6.17,0,0,1,4.64,1.9,6.5,6.5,0,0,1,1.84,4.7v1c0,.42.17.55.51.38a7.35,7.35,0,0,1,3.05-1c.76-.17,1.18-.5,1.27-1q4.82-21.47,8.38-42.8c.17-.68-.13-1-.89-1h-6.6a7.55,7.55,0,0,1-3.43-.89c-.68-.42-1-.29-1,.38ZM515,151a7.15,7.15,0,0,1,7.11,7.11,7.06,7.06,0,0,1-2.09,5.08,6.75,6.75,0,0,1-5,2.16H480.73a7.38,7.38,0,0,1-7.24-7.24,6.73,6.73,0,0,1,2.16-5,7,7,0,0,1,5.08-2.1Z"/><path class="cls-1" d="M417,390.39a6.61,6.61,0,1,1,0-13.21h41.65c.76,0,1.14-.34,1.14-1v-5.85a1,1,0,0,0-1.14-1.14H427.39a7.38,7.38,0,0,1-7.24-7.24V325.62a7.38,7.38,0,0,1,7.24-7.24h31.24a1,1,0,0,0,1.14-1.14v-5.46q0-1-1.14-1H418.25a6.51,6.51,0,0,1-6.61-6.6,6.18,6.18,0,0,1,1.91-4.64,6.48,6.48,0,0,1,4.7-1.84h40.38a1,1,0,0,0,1.14-1.14V294a7.17,7.17,0,0,1,7.12-7.12h3.05a7.17,7.17,0,0,1,7.11,7.12v2.54a1,1,0,0,0,1.14,1.14h40.39a6.46,6.46,0,0,1,4.69,1.84,6.18,6.18,0,0,1,1.91,4.64,6.51,6.51,0,0,1-6.6,6.6H478.19q-1.14,0-1.14,1v5.46a1,1,0,0,0,1.14,1.14h31.24a7.38,7.38,0,0,1,7.24,7.24v36.32a7.38,7.38,0,0,1-7.24,7.24H478.19a1,1,0,0,0-1.14,1.14v5.85c0,.67.38,1,1.14,1h41.66a6.61,6.61,0,1,1,0,13.21H478.19q-1.14,0-1.14,1v6a7.17,7.17,0,0,1-7.11,7.12h-3.05a7.17,7.17,0,0,1-7.12-7.12v-6q0-1-1.14-1Zm19-58.93v5.59q0,1,1.14,1h21.46q1.14,0,1.14-1v-5.59c0-.68-.38-1-1.14-1H437.17C436.41,330.45,436,330.78,436,331.46Zm1.14,25.66h21.46q1.14,0,1.14-1v-6a1,1,0,0,0-1.14-1.14H437.17a1,1,0,0,0-1.14,1.14v6Q436,357.12,437.17,357.12Zm62.48-26.67H478.19c-.76,0-1.14.33-1.14,1v5.59q0,1,1.14,1h21.46c.77,0,1.15-.34,1.15-1v-5.59C500.8,330.78,500.42,330.45,499.65,330.45Zm1.15,25.65v-6a1,1,0,0,0-1.15-1.14H478.19a1,1,0,0,0-1.14,1.14v6q0,1,1.14,1h21.46C500.42,357.12,500.8,356.78,500.8,356.1Z"/></g></g></svg>