<svg xmlns="http://www.w3.org/2000/svg" viewBox="0 0 664.26 404.49"><defs><style>.cls-1{fill:#489450;}</style></defs><g id="レイヤー_2" data-name="レイヤー 2"><g id="レイヤー_1-2" data-name="レイヤー 1"><path class="cls-1" d="M428.61,117.53a7.15,7.15,0,0,1-7.11-7.11V23.81a7,7,0,0,1,2.1-5.08,6.72,6.72,0,0,1,5-2.16h27.56a1.4,1.4,0,0,0,1.4-1c.84-2.37,1.78-5.33,2.79-8.89A8.79,8.79,0,0,1,463.73,2,7.53,7.53,0,0,1,469.25.57L472.3,1a5.81,5.81,0,0,1,4.51,2.54,5.8,5.8,0,0,1,.82,5.08q-1.14,4.18-2,7c-.17.68,0,1,.64,1h38a6.75,6.75,0,0,1,5,2.16,7.08,7.08,0,0,1,2.09,5.08v86.61a7.14,7.14,0,0,1-7.11,7.11h-4.57A5,5,0,0,1,506,116a4.87,4.87,0,0,1-1.53-3.56.67.67,0,0,0-.76-.76H439.15a.67.67,0,0,0-.76.76,4.9,4.9,0,0,1-1.52,3.56,5.06,5.06,0,0,1-3.69,1.52Zm9.78-86.1V43.24a1,1,0,0,0,1.14,1.14h63.89c.67,0,1-.38,1-1.14V31.43a.9.9,0,0,0-1-1H439.53Q438.39,30.41,438.39,31.43Zm0,26.67V70.16q0,1,1.14,1h63.89a.9.9,0,0,0,1-1V58.1a.9.9,0,0,0-1-1H439.53Q438.39,57.08,438.39,58.1Zm0,26.92V97.21a1,1,0,0,0,1.14,1.15h63.89c.67,0,1-.39,1-1.15V85c0-.76-.34-1.14-1-1.14H439.53A1,1,0,0,0,438.39,85Z"/><path class="cls-1" d="M436.87,234.56a1,1,0,0,0,1.14-1.14v-5.34a1,1,0,0,0-1.14-1.14H424a7.38,7.38,0,0,1-7.24-7.24V183.38a7.38,7.38,0,0,1,7.24-7.24h12.83A1,1,0,0,0,438,175v-5.47c0-.67-.38-1-1.14-1h-16a6.52,6.52,0,0,1-6.61-6.61,6.18,6.18,0,0,1,1.91-4.63,6.48,6.48,0,0,1,4.7-1.84h16a1,1,0,0,0,1.14-1.15V153a7.17,7.17,0,0,1,7.11-7.11h1.78A7.15,7.15,0,0,1,454,153v1.27a1,1,0,0,0,1.15,1.15h11.42a6.29,6.29,0,0,1,6.48,6.47,6.48,6.48,0,0,1-1.84,4.7,6.18,6.18,0,0,1-4.64,1.91H455.16c-.77,0-1.15.34-1.15,1V175a1,1,0,0,0,1.15,1.14h12.06a6.83,6.83,0,0,1,4.83,1.9,7.14,7.14,0,0,1,2.28,4.7c0,.68.34.81,1,.38a7.68,7.68,0,0,1,3.43-.89h43.05a6.75,6.75,0,0,1,5,2.16,7.22,7.22,0,0,1,0,10.16,6.75,6.75,0,0,1-5,2.16H502.91a1.2,1.2,0,0,0-1.27,1q-4.06,23.75-7.75,40.64a.59.59,0,0,0,.76.76q9.66-1.53,14.61-2.29c.76-.16,1.05-.55.89-1.14q-2-8.64-4.45-17.53a6.91,6.91,0,0,1,.7-5.39,6.77,6.77,0,0,1,4.38-3.37l.38-.12a7,7,0,0,1,5.53.76,7.5,7.5,0,0,1,3.49,4.44q4.83,17.14,8.89,36.07a7.54,7.54,0,0,1-5.59,8.64l-.76.25a7.1,7.1,0,0,1-5.46-.95,6.33,6.33,0,0,1-3-4.38,12.34,12.34,0,0,1-.25-1.4c-.09-.59-.17-1.06-.26-1.4-.17-.76-.68-1.06-1.52-.89q-19.3,3.56-35,5.59a6,6,0,0,1-5-1.59,6.66,6.66,0,0,1-2.35-4.89,10,10,0,0,1,.13-1.9.46.46,0,0,0-.07-.51.32.32,0,0,0-.44-.13,7.25,7.25,0,0,1-2.8.64H455.16a1,1,0,0,0-1.15,1.14v5.46a7.08,7.08,0,0,1-2.09,5.08,6.75,6.75,0,0,1-5,2.16h-1.78a6.72,6.72,0,0,1-5-2.16,7,7,0,0,1-2.1-5.08v-5.46a1,1,0,0,0-1.14-1.14h-16a6.48,6.48,0,0,1-4.7-1.84,6.18,6.18,0,0,1-1.91-4.64,6.51,6.51,0,0,1,6.61-6.6Zm-7.11-45.34v5.71c0,.77.33,1.15,1,1.15h6.48a1,1,0,0,0,1.14-1.15v-5.71a1,1,0,0,0-1.14-1.14h-6.48C430.09,188.08,429.76,188.46,429.76,189.22ZM437.25,215a1,1,0,0,0,1.14-1.14v-6.1a1,1,0,0,0-1.14-1.14h-6.48c-.68,0-1,.38-1,1.14v6.1c0,.76.33,1.14,1,1.14Zm16.38-25.78v5.71a1,1,0,0,0,1.14,1.15h6.48c.68,0,1-.38,1-1.15v-5.71q0-1.14-1-1.14h-6.48A1,1,0,0,0,453.63,189.22Zm0,18.54v6.1a1,1,0,0,0,1.14,1.14h6.48q1,0,1-1.14v-6.1q0-1.14-1-1.14h-6.48A1,1,0,0,0,453.63,207.76Zm20.7,11.94a7.08,7.08,0,0,1-2.09,5.08,6.75,6.75,0,0,1-5,2.16H455.16a1,1,0,0,0-1.15,1.14v5.34a1,1,0,0,0,1.15,1.14h11.42a6.17,6.17,0,0,1,4.64,1.9,6.5,6.5,0,0,1,1.84,4.7v1c0,.42.17.55.51.38a7.35,7.35,0,0,1,3.05-1c.76-.17,1.18-.5,1.27-1q4.83-21.47,8.38-42.8c.17-.68-.13-1-.89-1h-6.6a7.55,7.55,0,0,1-3.43-.89c-.68-.42-1-.29-1,.38ZM518,151a7.15,7.15,0,0,1,7.11,7.11,7.06,7.06,0,0,1-2.09,5.08,6.75,6.75,0,0,1-5,2.16H483.73a7.38,7.38,0,0,1-7.24-7.24,6.73,6.73,0,0,1,2.16-5,7,7,0,0,1,5.08-2.1Z"/><path class="cls-1" d="M420,390.39a6.61,6.61,0,1,1,0-13.21h41.65c.76,0,1.15-.34,1.15-1v-5.85a1,1,0,0,0-1.15-1.14H430.39a7.38,7.38,0,0,1-7.24-7.24V325.62a7.38,7.38,0,0,1,7.24-7.24h31.24a1,1,0,0,0,1.15-1.14v-5.46c0-.68-.39-1-1.15-1H421.25a6.51,6.51,0,0,1-6.61-6.6,6.18,6.18,0,0,1,1.91-4.64,6.48,6.48,0,0,1,4.7-1.84h40.38a1,1,0,0,0,1.15-1.14V294a7.15,7.15,0,0,1,7.11-7.12h3.05a7.17,7.17,0,0,1,7.11,7.12v2.54a1,1,0,0,0,1.14,1.14h40.39a6.5,6.5,0,0,1,4.7,1.84,6.21,6.21,0,0,1,1.9,4.64,6.49,6.49,0,0,1-6.6,6.6H481.19q-1.14,0-1.14,1v5.46a1,1,0,0,0,1.14,1.14h31.24a7.38,7.38,0,0,1,7.24,7.24v36.32a7.38,7.38,0,0,1-7.24,7.24H481.19a1,1,0,0,0-1.14,1.14v5.85c0,.67.38,1,1.14,1h41.66a6.61,6.61,0,1,1,0,13.21H481.19q-1.14,0-1.14,1v6a7.17,7.17,0,0,1-7.11,7.12h-3.05a7.15,7.15,0,0,1-7.11-7.12v-6c0-.68-.39-1-1.15-1Zm19-58.93v5.59q0,1,1.14,1h21.46c.76,0,1.15-.34,1.15-1v-5.59c0-.68-.39-1-1.15-1H440.17C439.41,330.45,439,330.78,439,331.46Zm1.14,25.66h21.46c.76,0,1.15-.34,1.15-1v-6a1,1,0,0,0-1.15-1.14H440.17a1,1,0,0,0-1.14,1.14v6Q439,357.12,440.17,357.12Zm62.48-26.67H481.19c-.76,0-1.14.33-1.14,1v5.59q0,1,1.14,1h21.46c.77,0,1.15-.34,1.15-1v-5.59C503.8,330.78,503.42,330.45,502.65,330.45Zm1.15,25.65v-6a1,1,0,0,0-1.15-1.14H481.19a1,1,0,0,0-1.14,1.14v6q0,1,1.14,1h21.46C503.42,357.12,503.8,356.78,503.8,356.1Z"/><path class="cls-1" d="M552.5,112.51l-2.41-2.92q-4.44-5.46-1.65-12.32,6.73-17.14,6.73-52.58V14.21a7,7,0,0,1,2.16-5.08A7,7,0,0,1,562.41,7h94a6.37,6.37,0,0,1,4.76,2,6.69,6.69,0,0,1,2,4.82,6.48,6.48,0,0,1-2,4.76,6.45,6.45,0,0,1-4.76,2h-31c-.68,0-1.1.38-1.27,1.15-.17.59-.4,1.39-.7,2.41s-.48,1.69-.57,2c-.17.68.13,1,.89,1h25a7.08,7.08,0,0,1,5.08,2.09,6.75,6.75,0,0,1,2.16,5V73a7.38,7.38,0,0,1-7.24,7.24H628.32a.89.89,0,0,0-1,1v16c0,3.47,0,6.2-.13,8.19a23.59,23.59,0,0,1-.89,5.59,9.91,9.91,0,0,1-1.78,3.75,8.17,8.17,0,0,1-3.43,2,20.17,20.17,0,0,1-5.08,1q-2.65.19-7.49.19c-3.13,0-5.89,0-8.25-.13a7.22,7.22,0,0,1-5.15-2.34,8.52,8.52,0,0,1-2.35-5.28,5.9,5.9,0,0,1,1.84-5,6.36,6.36,0,0,1,4.89-1.9q5.85.25,6.48.25c2.29,0,3.66-.27,4.13-.83s.7-2.26.7-5.14V81.27c0-.68-.38-1-1.15-1H586.16A7.38,7.38,0,0,1,578.92,73V34.28a6.75,6.75,0,0,1,2.16-5,7.08,7.08,0,0,1,5.08-2.09h17.65a1.31,1.31,0,0,0,1.4-1.15c.08-.33.27-1,.57-2s.53-1.82.7-2.41-.09-1-.76-1H572.19q-1.14,0-1.14,1V56.5q0,34.55-10.42,55.25a4.52,4.52,0,0,1-3.87,2.6A4.75,4.75,0,0,1,552.5,112.51ZM594,82.79a7.21,7.21,0,0,1,3.62,4.26,6.79,6.79,0,0,1-.44,5.52,94.28,94.28,0,0,1-14.61,20.07,7,7,0,0,1-5.14,2.22,7.61,7.61,0,0,1-5.4-2l-1-.89a6.07,6.07,0,0,1-2.29-4.63,6.2,6.2,0,0,1,1.91-4.89,88.4,88.4,0,0,0,13-17A7.53,7.53,0,0,1,587.94,82a7.24,7.24,0,0,1,5.46.38Zm44.33-43.43H595.68q-1.14,0-1.14,1V46.6c0,.68.38,1,1.14,1h42.68c.76,0,1.14-.33,1.14-1V40.38Q639.5,39.36,638.36,39.36ZM639.5,67v-6.6a1,1,0,0,0-1.14-1.14H595.68a1,1,0,0,0-1.14,1.14V67q0,1,1.14,1h42.68Q639.5,68.06,639.5,67Zm8,17.4a228.32,228.32,0,0,1,14.48,18,6.72,6.72,0,0,1,1.2,5.46,7,7,0,0,1-3,4.7l-.76.51a7,7,0,0,1-5.34,1.14,7.2,7.2,0,0,1-4.7-2.92q-8-10.92-14.22-17.91a6.15,6.15,0,0,1-1.59-4.95,6.5,6.5,0,0,1,2.61-4.57l.63-.51a8,8,0,0,1,5.53-1.53A7.47,7.47,0,0,1,647.5,84.44Z"/><path class="cls-1" d="M547.3,212.59,545.77,207a15.6,15.6,0,0,1,2.16-12.83q11.43-18,16.64-41.65a7.62,7.62,0,0,1,8.64-5.85l1.39.26a7.16,7.16,0,0,1,4.57,3,7,7,0,0,1,1.15,5.33A144.83,144.83,0,0,1,575.24,174a6.35,6.35,0,0,0-.26,2.16v77.72a6.75,6.75,0,0,1-2.16,5,7,7,0,0,1-5.08,2.09h-1.9a7,7,0,0,1-5.08-2.09,6.75,6.75,0,0,1-2.16-5V207c0-.17-.06-.25-.19-.25a.44.44,0,0,0-.32.12c-1.35,2.29-2.88,4.62-4.57,7a3.3,3.3,0,0,1-3.49,1.33A3.44,3.44,0,0,1,547.3,212.59ZM589,178a7.38,7.38,0,0,1-7.24-7.24,6.73,6.73,0,0,1,2.16-5,7,7,0,0,1,5.08-2.1h46.48a1,1,0,0,0,1.15-1.14V153a7.15,7.15,0,0,1,7.11-7.11h2.54a7,7,0,0,1,5.08,2.1,6.73,6.73,0,0,1,2.16,5v9.53a1,1,0,0,0,1.14,1.14H657a7,7,0,0,1,5.08,2.1,6.73,6.73,0,0,1,2.16,5A7.38,7.38,0,0,1,657,178h-2.41a1,1,0,0,0-1.14,1.15v60.45q0,5.21-.19,8.19a21.73,21.73,0,0,1-1.08,5.59,9.8,9.8,0,0,1-2,3.74,9.32,9.32,0,0,1-3.81,2,24.68,24.68,0,0,1-5.72,1q-3,.19-8.38.19c-5.67,0-10.59-.09-14.73-.26a7.55,7.55,0,0,1-5.21-2.28,8.11,8.11,0,0,1-2.41-5.21,6.48,6.48,0,0,1,1.9-5,6.22,6.22,0,0,1,5-2q8.25.38,12.57.38,5.2,0,6.22-.83t1-5.14V179.19a1,1,0,0,0-1.15-1.15Zm27,47.75-.89.51a6.94,6.94,0,0,1-5.46.58,6.85,6.85,0,0,1-4.31-3.37q-6.74-11.69-13.47-21.46a7.27,7.27,0,0,1-1.14-5.4,6.55,6.55,0,0,1,3-4.51l.89-.64a7.35,7.35,0,0,1,10,1.91q8.64,12.83,14.1,22.61a6.52,6.52,0,0,1,.63,5.46A7,7,0,0,1,616,225.79Z"/><path class="cls-1" d="M163.25,339a28.8,28.8,0,0,0,28.49-24.91l-57-.3A28.78,28.78,0,0,0,163.25,339Z"/><path class="cls-1" d="M74.78,203a39.19,39.19,0,0,0,35.78-23.3H75a10.8,10.8,0,0,1-9.41-16.12l20.94-37.07A39.15,39.15,0,1,0,74.78,203Z"/><path class="cls-1" d="M104.59,138.56l-11,19.56h20A39,39,0,0,0,104.59,138.56Z"/><path class="cls-1" d="M135.27,158.12h20.06l27.74-46.78-63.2.19L115.66,119A60.63,60.63,0,0,1,135.27,158.12Z"/><path class="cls-1" d="M334.94,339.48a28.79,28.79,0,0,0,28.58-25.66l-57.12.34A28.78,28.78,0,0,0,334.94,339.48Z"/><path class="cls-1" d="M375,0H25A25,25,0,0,0,0,25V375a25,25,0,0,0,25,25H375a25,25,0,0,0,25-25V25A25,25,0,0,0,375,0ZM74.78,103.12a60.43,60.43,0,0,1,22.55,4.34l13.45-23.8H72.85V62H129.3a10.81,10.81,0,0,1,9.41,16.13l-6.61,11.7,64.46-.19L179.35,62.77H143.23V41.15h42a10.81,10.81,0,0,1,9.1,5l39.37,61.56a60.64,60.64,0,0,1,48,.79L260.29,124.9c-1.13-.1-2.28-.16-3.44-.16a38.88,38.88,0,0,0-11.17,1.63l4.17,6.51-17.24,13.18-5.13-8a39.15,39.15,0,0,0-9.17,19l-21.48,16.43a60.72,60.72,0,0,1,18.71-54.06l-6.27-9.81-38.48,64.9a10.83,10.83,0,0,1-9.3,5.29H133.44a60.77,60.77,0,1,1-58.66-76.62ZM19,341.5a5,5,0,0,1,.94-7L373,64.56a5,5,0,0,1,7,.94h0a5,5,0,0,1-.94,7L26,342.44A5,5,0,0,1,19,341.5Zm364.4-28.34a48.53,48.53,0,0,1-96.86,1.11l-2.08,0-8.88,14.13a9.89,9.89,0,0,1-8.37,4.63H225a9.88,9.88,0,0,1-9.88-9.8l-.09-9-3.45,0a48.52,48.52,0,0,1-96.76-.52h-1a9.84,9.84,0,0,1-7-3l110.38-84.39H236a9.89,9.89,0,0,1,9.89,9.88v16.7a9.88,9.88,0,0,1-9.89,9.88h-1.53v11.82l.35,38.71h26.91l37.6-59.86-20.22-57h-20.7a4.48,4.48,0,0,1-1.72-.35l25.4-19.42h3.5l27.68-7.15a4.4,4.4,0,0,1,4.39,4.39V192a4.4,4.4,0,0,1-4.39,4.4h-9.54c12.6,20,35,55.5,35,55.88,0,0,51.23,2.38,51.23,51.53A9.89,9.89,0,0,1,383.4,313.16Z"/></g></g></svg>